<mxfile host="app.diagrams.net" modified="2023-07-11T08:59:43.960Z" agent="Mozilla/5.0 (Windows NT 10.0; Win64; x64) AppleWebKit/537.36 (KHTML, like Gecko) Chrome/114.0.0.0 Safari/537.36" etag="pwaJOLIsy8AonrY1y41h" version="21.6.1" type="github">
  <diagram name="第 1 页" id="Vg5fuEZyYZAqKFxMSMec">
    <mxGraphModel dx="1050" dy="669" grid="1" gridSize="10" guides="1" tooltips="1" connect="1" arrows="1" fold="1" page="1" pageScale="1" pageWidth="827" pageHeight="1169" math="0" shadow="0">
      <root>
        <mxCell id="0" />
        <mxCell id="1" parent="0" />
        <mxCell id="SU_DjHasLBAac4wTX9cH-3" style="edgeStyle=orthogonalEdgeStyle;rounded=0;orthogonalLoop=1;jettySize=auto;html=1;entryX=0.5;entryY=0;entryDx=0;entryDy=0;" edge="1" parent="1" source="SU_DjHasLBAac4wTX9cH-1" target="SU_DjHasLBAac4wTX9cH-2">
          <mxGeometry relative="1" as="geometry" />
        </mxCell>
        <mxCell id="SU_DjHasLBAac4wTX9cH-1" value="Step 1" style="rounded=0;whiteSpace=wrap;html=1;fillColor=#ffe6cc;strokeColor=#d79b00;" vertex="1" parent="1">
          <mxGeometry x="90" y="120" width="120" height="60" as="geometry" />
        </mxCell>
        <mxCell id="SU_DjHasLBAac4wTX9cH-5" style="edgeStyle=orthogonalEdgeStyle;rounded=0;orthogonalLoop=1;jettySize=auto;html=1;entryX=0;entryY=0.5;entryDx=0;entryDy=0;" edge="1" parent="1" source="SU_DjHasLBAac4wTX9cH-2" target="SU_DjHasLBAac4wTX9cH-4">
          <mxGeometry relative="1" as="geometry" />
        </mxCell>
        <mxCell id="SU_DjHasLBAac4wTX9cH-2" value="Step 2" style="rounded=0;whiteSpace=wrap;html=1;" vertex="1" parent="1">
          <mxGeometry x="90" y="230" width="120" height="60" as="geometry" />
        </mxCell>
        <mxCell id="SU_DjHasLBAac4wTX9cH-4" value="Step 3" style="rounded=1;whiteSpace=wrap;html=1;" vertex="1" parent="1">
          <mxGeometry x="280" y="230" width="120" height="60" as="geometry" />
        </mxCell>
      </root>
    </mxGraphModel>
  </diagram>
</mxfile>
